<?xml version="1.0" encoding="UTF-8" standalone="no"?>
<!-- Generator: Adobe Illustrator 16.0.0, SVG Export Plug-In . SVG Version: 6.00 Build 0)  -->

<svg
   xmlns:dc="http://purl.org/dc/elements/1.1/"
   xmlns:cc="http://creativecommons.org/ns#"
   xmlns:rdf="http://www.w3.org/1999/02/22-rdf-syntax-ns#"
   xmlns:svg="http://www.w3.org/2000/svg"
   xmlns="http://www.w3.org/2000/svg"
   xmlns:sodipodi="http://sodipodi.sourceforge.net/DTD/sodipodi-0.dtd"
   xmlns:inkscape="http://www.inkscape.org/namespaces/inkscape"
   version="1.1"
   id="Layer_1"
   x="0px"
   y="0px"
   width="200"
   height="200"
   viewBox="0 0 200 200"
   enable-background="new 0 0 1920 1002"
   xml:space="preserve"
   inkscape:version="0.91 r13725"
   sodipodi:docname="empty-cart.svg"><metadata
     id="metadata9"><rdf:RDF><cc:Work
         rdf:about=""><dc:format>image/svg+xml</dc:format><dc:type
           rdf:resource="http://purl.org/dc/dcmitype/StillImage" /><dc:title></dc:title></cc:Work></rdf:RDF></metadata><defs
     id="defs7" /><sodipodi:namedview
     pagecolor="#ffffff"
     bordercolor="#666666"
     borderopacity="1"
     objecttolerance="10"
     gridtolerance="10"
     guidetolerance="10"
     inkscape:pageopacity="0"
     inkscape:pageshadow="2"
     inkscape:window-width="1736"
     inkscape:window-height="799"
     id="namedview5"
     showgrid="false"
     inkscape:zoom="0.40364012"
     inkscape:cx="960"
     inkscape:cy="302.80365"
     inkscape:window-x="36"
     inkscape:window-y="19"
     inkscape:window-maximized="0"
     inkscape:current-layer="Layer_1" /><g
     id="g4165"
     transform="translate(-996.41413,-403.12984)"><path
       inkscape:connector-curvature="0"
       style="clip-rule:evenodd;fill:#e1e1e1;fill-opacity:1;fill-rule:evenodd"
       id="path3"
       d="m 1175.9022,445.32217 18.385,18.371 c 2.571,2.569 2.571,6.733 0,9.302 l -0.465,0.465 c -2.57,2.569 -6.738,2.569 -9.309,0 l -18.385,-18.371 -18.385,18.371 c -2.571,2.569 -6.738,2.569 -9.309,0 l -0.465,-0.465 c -2.57,-2.569 -2.57,-6.733 0,-9.302 l 18.385,-18.371 -18.385,-18.37 c -2.57,-2.569 -2.57,-6.733 0,-9.302 l 0.465,-0.465 c 2.571,-2.569 6.738,-2.569 9.309,0 l 18.385,18.371 18.385,-18.371 c 2.571,-2.569 6.738,-2.569 9.309,0 l 0.465,0.465 c 2.571,2.568 2.571,6.733 0,9.302 l -18.385,18.37 z" /><path
       id="path3-1"
       d="m 1005.6621,406.4375 c -3.817,0 -6.9121,3.09225 -6.9121,6.90625 l 0,0.6582 c 10e-4,3.814 3.0951,6.9043 6.9121,6.9043 l 15.4609,0 21.1309,99.85547 c 0.094,1.038 0.3118,2.03819 0.6328,2.99219 l 12.2871,58.05859 c 0.054,0.258 0.127,0.50991 0.209,0.75391 2.674,9.245 11.0742,16.58203 21.3692,16.58203 9.519,0 17.6277,-6.02771 20.7168,-14.47071 l 17.8066,0 c 3.088,8.443 11.1988,14.47071 20.7168,14.47071 12.179,0 22.0508,-9.86421 22.0508,-22.03321 0,-12.169 -9.8718,-22.0332 -22.0508,-22.0332 -9.763,0 -18.0395,6.34195 -20.9395,15.12695 l -17.3613,0 c -2.9,-8.785 -11.1764,-15.12695 -20.9394,-15.12695 -4.308,0 -8.3228,1.23709 -11.7188,3.37109 l -5.4453,-25.73437 92.5312,0 c 7.271,0 11.4061,-5.7203 13.1661,-13.1543 l 5.6875,-28.41601 -15.4493,0 -2.7461,13.94726 c -1.801,8.024 -5.893,13.1543 -13.164,13.1543 l -82.9375,0 -14.4805,-66.42969 76.5567,0 0,-14.4707 -79.3477,0 -5.1172,-24.17773 c -0.771,-3.508 -2.7333,-6.73438 -6.9043,-6.73438 l -21.7207,0 z m 71.0899,161.79883 c 4.908,0 8.8847,3.9749 8.8847,8.8789 0,4.904 -3.9767,8.87891 -8.8847,8.87891 -4.908,0 -8.8868,-3.97491 -8.8868,-8.87891 0,-4.904 3.9788,-8.8789 8.8868,-8.8789 z m 59.2402,0 c 4.908,0 8.8848,3.9749 8.8848,8.8789 0,4.904 -3.9778,8.87891 -8.8848,8.87891 -4.907,0 -8.8867,-3.97491 -8.8867,-8.87891 0,-4.904 3.9797,-8.8789 8.8867,-8.8789 z"
       style="clip-rule:evenodd;fill:#e1e1e1;fill-opacity:1;fill-rule:evenodd"
       inkscape:connector-curvature="0" /></g></svg>